<mxfile host="65bd71144e">
    <diagram id="B-lVAMX0ywGX5zVq6d2T" name="Page-1">
        <mxGraphModel dx="1016" dy="666" grid="1" gridSize="10" guides="1" tooltips="1" connect="1" arrows="1" fold="1" page="1" pageScale="1" pageWidth="850" pageHeight="1100" math="0" shadow="0">
            <root>
                <mxCell id="0"/>
                <mxCell id="1" parent="0"/>
                <mxCell id="35" value="" style="group" parent="1" vertex="1" connectable="0">
                    <mxGeometry x="20" y="390" width="810" height="270" as="geometry"/>
                </mxCell>
                <mxCell id="25" value="" style="rounded=0;whiteSpace=wrap;html=1;" parent="35" vertex="1">
                    <mxGeometry width="800" height="200" as="geometry"/>
                </mxCell>
                <mxCell id="26" value="" style="rounded=0;whiteSpace=wrap;html=1;" parent="35" vertex="1">
                    <mxGeometry y="80" width="200" height="120" as="geometry"/>
                </mxCell>
                <mxCell id="27" value="" style="rounded=0;whiteSpace=wrap;html=1;" parent="35" vertex="1">
                    <mxGeometry x="200" y="80" width="200" height="120" as="geometry"/>
                </mxCell>
                <mxCell id="28" value="&lt;div style=&quot;text-align: center&quot;&gt;&lt;span style=&quot;font-size: 26px&quot;&gt;&lt;font face=&quot;helvetica&quot;&gt;&lt;u&gt;TopStake Stakes&lt;/u&gt;&lt;/font&gt;&lt;/span&gt;&lt;/div&gt;" style="text;whiteSpace=wrap;html=1;" parent="35" vertex="1">
                    <mxGeometry x="289.47368421052636" y="20" width="221.05263157894737" height="30" as="geometry"/>
                </mxCell>
                <mxCell id="29" value="" style="rounded=0;whiteSpace=wrap;html=1;" parent="35" vertex="1">
                    <mxGeometry x="400" y="80" width="200" height="120" as="geometry"/>
                </mxCell>
                <mxCell id="30" value="" style="rounded=0;whiteSpace=wrap;html=1;" parent="35" vertex="1">
                    <mxGeometry x="600" y="80" width="200" height="120" as="geometry"/>
                </mxCell>
                <mxCell id="62" value="Amnt a" style="rounded=0;whiteSpace=wrap;html=1;" parent="35" vertex="1">
                    <mxGeometry y="160" width="60" height="40" as="geometry"/>
                </mxCell>
                <mxCell id="63" value="Amnt d" style="rounded=0;whiteSpace=wrap;html=1;" parent="35" vertex="1">
                    <mxGeometry x="150" y="160" width="50" height="40" as="geometry"/>
                </mxCell>
                <mxCell id="64" value="&lt;span&gt;Amnt c&lt;/span&gt;" style="rounded=0;whiteSpace=wrap;html=1;" parent="35" vertex="1">
                    <mxGeometry x="110" y="160" width="40" height="40" as="geometry"/>
                </mxCell>
                <mxCell id="65" value="&lt;span&gt;Amnt b&lt;/span&gt;" style="rounded=0;whiteSpace=wrap;html=1;" parent="35" vertex="1">
                    <mxGeometry x="60" y="160" width="50" height="40" as="geometry"/>
                </mxCell>
                <mxCell id="90" value="Acc 23" style="rounded=0;whiteSpace=wrap;html=1;" parent="35" vertex="1">
                    <mxGeometry y="120" width="50" height="40" as="geometry"/>
                </mxCell>
                <mxCell id="91" value="&lt;span&gt;Acc 40&lt;/span&gt;" style="rounded=0;whiteSpace=wrap;html=1;" parent="35" vertex="1">
                    <mxGeometry x="150" y="120" width="50" height="40" as="geometry"/>
                </mxCell>
                <mxCell id="92" value="&lt;span&gt;Acc 13&lt;/span&gt;" style="rounded=0;whiteSpace=wrap;html=1;" parent="35" vertex="1">
                    <mxGeometry x="100" y="120" width="50" height="40" as="geometry"/>
                </mxCell>
                <mxCell id="93" value="&lt;span style=&quot;color: rgb(240 , 240 , 240) ; font-family: &amp;#34;helvetica&amp;#34; ; font-size: 12px ; font-style: normal ; font-weight: 400 ; letter-spacing: normal ; text-align: center ; text-indent: 0px ; text-transform: none ; word-spacing: 0px ; background-color: rgb(42 , 42 , 42) ; display: inline ; float: none&quot;&gt;Acc 200&lt;/span&gt;" style="rounded=0;whiteSpace=wrap;html=1;" parent="35" vertex="1">
                    <mxGeometry x="50" y="120" width="50" height="40" as="geometry"/>
                </mxCell>
                <mxCell id="98" value="" style="rounded=0;whiteSpace=wrap;html=1;" parent="35" vertex="1">
                    <mxGeometry x="200" y="120" width="40" height="40" as="geometry"/>
                </mxCell>
                <mxCell id="99" value="" style="rounded=0;whiteSpace=wrap;html=1;" parent="35" vertex="1">
                    <mxGeometry x="320" y="120" width="40" height="40" as="geometry"/>
                </mxCell>
                <mxCell id="100" value="" style="rounded=0;whiteSpace=wrap;html=1;" parent="35" vertex="1">
                    <mxGeometry x="280" y="120" width="40" height="40" as="geometry"/>
                </mxCell>
                <mxCell id="101" value="" style="rounded=0;whiteSpace=wrap;html=1;" parent="35" vertex="1">
                    <mxGeometry x="240" y="120" width="40" height="40" as="geometry"/>
                </mxCell>
                <mxCell id="106" value="" style="rounded=0;whiteSpace=wrap;html=1;" parent="35" vertex="1">
                    <mxGeometry x="400" y="120" width="100" height="40" as="geometry"/>
                </mxCell>
                <mxCell id="108" value="" style="rounded=0;whiteSpace=wrap;html=1;" parent="35" vertex="1">
                    <mxGeometry x="500" y="120" width="100" height="40" as="geometry"/>
                </mxCell>
                <mxCell id="110" value="" style="rounded=0;whiteSpace=wrap;html=1;" parent="35" vertex="1">
                    <mxGeometry x="600" y="160" width="40" height="40" as="geometry"/>
                </mxCell>
                <mxCell id="111" value="" style="rounded=0;whiteSpace=wrap;html=1;" parent="35" vertex="1">
                    <mxGeometry x="750" y="160" width="50" height="40" as="geometry"/>
                </mxCell>
                <mxCell id="112" value="" style="rounded=0;whiteSpace=wrap;html=1;" parent="35" vertex="1">
                    <mxGeometry x="740" y="160" width="10" height="40" as="geometry"/>
                </mxCell>
                <mxCell id="113" value="" style="rounded=0;whiteSpace=wrap;html=1;" parent="35" vertex="1">
                    <mxGeometry x="640" y="160" width="100" height="40" as="geometry"/>
                </mxCell>
                <mxCell id="114" value="" style="rounded=0;whiteSpace=wrap;html=1;" parent="35" vertex="1">
                    <mxGeometry x="600" y="120" width="50" height="40" as="geometry"/>
                </mxCell>
                <mxCell id="115" value="" style="rounded=0;whiteSpace=wrap;html=1;" parent="35" vertex="1">
                    <mxGeometry x="750" y="120" width="50" height="40" as="geometry"/>
                </mxCell>
                <mxCell id="116" value="" style="rounded=0;whiteSpace=wrap;html=1;" parent="35" vertex="1">
                    <mxGeometry x="700" y="120" width="50" height="40" as="geometry"/>
                </mxCell>
                <mxCell id="117" value="" style="rounded=0;whiteSpace=wrap;html=1;" parent="35" vertex="1">
                    <mxGeometry x="650" y="120" width="50" height="40" as="geometry"/>
                </mxCell>
                <mxCell id="118" value="&lt;span&gt;Item #1&lt;/span&gt;" style="rounded=0;whiteSpace=wrap;html=1;" parent="35" vertex="1">
                    <mxGeometry y="80" width="200" height="40" as="geometry"/>
                </mxCell>
                <mxCell id="119" value="&lt;span style=&quot;font-family: &amp;#34;helvetica&amp;#34;&quot;&gt;Item #2&lt;/span&gt;" style="rounded=0;whiteSpace=wrap;html=1;" parent="35" vertex="1">
                    <mxGeometry x="200" y="80" width="200" height="40" as="geometry"/>
                </mxCell>
                <mxCell id="120" value="" style="rounded=0;whiteSpace=wrap;html=1;" parent="35" vertex="1">
                    <mxGeometry x="400" y="80" width="200" height="40" as="geometry"/>
                </mxCell>
                <mxCell id="163" value="&lt;span style=&quot;font-family: &amp;#34;helvetica&amp;#34;&quot;&gt;Item #3&lt;/span&gt;" style="rounded=0;whiteSpace=wrap;html=1;" parent="35" vertex="1">
                    <mxGeometry x="400" y="80" width="200" height="40" as="geometry"/>
                </mxCell>
                <mxCell id="164" value="&lt;span style=&quot;font-family: &amp;#34;helvetica&amp;#34;&quot;&gt;Item #4&lt;/span&gt;" style="rounded=0;whiteSpace=wrap;html=1;" parent="35" vertex="1">
                    <mxGeometry x="600" y="80" width="200" height="40" as="geometry"/>
                </mxCell>
                <mxCell id="165" value="" style="rounded=0;whiteSpace=wrap;html=1;" parent="35" vertex="1">
                    <mxGeometry x="360" y="120" width="40" height="40" as="geometry"/>
                </mxCell>
                <mxCell id="166" value="" style="rounded=0;whiteSpace=wrap;html=1;" parent="35" vertex="1">
                    <mxGeometry x="200" y="160" width="30" height="40" as="geometry"/>
                </mxCell>
                <mxCell id="167" value="" style="rounded=0;whiteSpace=wrap;html=1;" parent="35" vertex="1">
                    <mxGeometry x="320" y="160" width="10" height="40" as="geometry"/>
                </mxCell>
                <mxCell id="168" value="" style="rounded=0;whiteSpace=wrap;html=1;" parent="35" vertex="1">
                    <mxGeometry x="280" y="160" width="40" height="40" as="geometry"/>
                </mxCell>
                <mxCell id="169" value="" style="rounded=0;whiteSpace=wrap;html=1;" parent="35" vertex="1">
                    <mxGeometry x="230" y="160" width="50" height="40" as="geometry"/>
                </mxCell>
                <mxCell id="170" value="" style="rounded=0;whiteSpace=wrap;html=1;" parent="35" vertex="1">
                    <mxGeometry x="330" y="160" width="70" height="40" as="geometry"/>
                </mxCell>
                <mxCell id="171" value="" style="rounded=0;whiteSpace=wrap;html=1;" parent="35" vertex="1">
                    <mxGeometry x="400" y="160" width="50" height="40" as="geometry"/>
                </mxCell>
                <mxCell id="172" value="" style="rounded=0;whiteSpace=wrap;html=1;" parent="35" vertex="1">
                    <mxGeometry x="450" y="160" width="150" height="40" as="geometry"/>
                </mxCell>
                <mxCell id="233" value="" style="group" parent="35" vertex="1" connectable="0">
                    <mxGeometry y="270" width="800" height="200" as="geometry"/>
                </mxCell>
                <mxCell id="234" value="" style="rounded=0;whiteSpace=wrap;html=1;" parent="233" vertex="1">
                    <mxGeometry width="800" height="200" as="geometry"/>
                </mxCell>
                <mxCell id="235" value="Mint: Account 1, Amount x × reward" style="rounded=0;whiteSpace=wrap;html=1;" parent="233" vertex="1">
                    <mxGeometry x="90" y="80" width="110" height="70" as="geometry"/>
                </mxCell>
                <mxCell id="237" value="&lt;u style=&quot;color: rgb(240 , 240 , 240) ; font-family: &amp;#34;helvetica&amp;#34; ; font-style: normal ; font-weight: 400 ; letter-spacing: normal ; text-align: center ; text-indent: 0px ; text-transform: none ; word-spacing: 0px ; background-color: rgb(42 , 42 , 42)&quot;&gt;&lt;font style=&quot;font-size: 26px&quot;&gt;TopToken Rewards&lt;/font&gt;&lt;/u&gt;" style="text;whiteSpace=wrap;html=1;" parent="233" vertex="1">
                    <mxGeometry x="282" y="20" width="245.26" height="30" as="geometry"/>
                </mxCell>
                <mxCell id="251" value="Mint: Account 23, Amount a × reward&lt;br&gt;/(a+b+c+d)" style="rounded=0;whiteSpace=wrap;html=1;" parent="233" vertex="1">
                    <mxGeometry y="130" width="110" height="70" as="geometry"/>
                </mxCell>
                <mxCell id="250" value="" style="edgeStyle=none;html=1;fontSize=10;exitX=0.5;exitY=1;exitDx=0;exitDy=0;entryX=0.5;entryY=0;entryDx=0;entryDy=0;" parent="35" source="118" target="235" edge="1">
                    <mxGeometry relative="1" as="geometry">
                        <mxPoint x="45" y="-20" as="sourcePoint"/>
                        <mxPoint x="100" y="250" as="targetPoint"/>
                    </mxGeometry>
                </mxCell>
                <mxCell id="252" value="" style="edgeStyle=none;html=1;fontSize=9;entryX=0.5;entryY=0;entryDx=0;entryDy=0;" parent="35" source="62" target="251" edge="1">
                    <mxGeometry relative="1" as="geometry">
                        <mxPoint x="-20" y="370" as="targetPoint"/>
                    </mxGeometry>
                </mxCell>
                <mxCell id="36" value="" style="group" parent="1" vertex="1" connectable="0">
                    <mxGeometry x="20" y="110" width="800" height="200" as="geometry"/>
                </mxCell>
                <mxCell id="17" value="" style="rounded=0;whiteSpace=wrap;html=1;" parent="36" vertex="1">
                    <mxGeometry width="800" height="200" as="geometry"/>
                </mxCell>
                <mxCell id="20" value="Item #1" style="rounded=0;whiteSpace=wrap;html=1;" parent="36" vertex="1">
                    <mxGeometry y="80" width="200" height="120" as="geometry"/>
                </mxCell>
                <mxCell id="21" value="&lt;span style=&quot;color: rgb(240 , 240 , 240) ; font-family: &amp;#34;helvetica&amp;#34; ; font-size: 12px ; font-style: normal ; font-weight: 400 ; letter-spacing: normal ; text-align: center ; text-indent: 0px ; text-transform: none ; word-spacing: 0px ; background-color: rgb(42 , 42 , 42) ; display: inline ; float: none&quot;&gt;Item #2&lt;/span&gt;" style="rounded=0;whiteSpace=wrap;html=1;" parent="36" vertex="1">
                    <mxGeometry x="200" y="80" width="200" height="120" as="geometry"/>
                </mxCell>
                <mxCell id="22" value="&lt;u style=&quot;color: rgb(240 , 240 , 240) ; font-family: &amp;#34;helvetica&amp;#34; ; font-style: normal ; font-weight: 400 ; letter-spacing: normal ; text-align: center ; text-indent: 0px ; text-transform: none ; word-spacing: 0px ; background-color: rgb(42 , 42 , 42)&quot;&gt;&lt;font style=&quot;font-size: 26px&quot;&gt;TopShelf Listings&lt;/font&gt;&lt;/u&gt;" style="text;whiteSpace=wrap;html=1;" parent="36" vertex="1">
                    <mxGeometry x="289.4736842105263" y="20" width="221.05263157894737" height="30" as="geometry"/>
                </mxCell>
                <mxCell id="23" value="&lt;span style=&quot;color: rgb(240 , 240 , 240) ; font-family: &amp;#34;helvetica&amp;#34; ; font-size: 12px ; font-style: normal ; font-weight: 400 ; letter-spacing: normal ; text-align: center ; text-indent: 0px ; text-transform: none ; word-spacing: 0px ; background-color: rgb(42 , 42 , 42) ; display: inline ; float: none&quot;&gt;Item #3&lt;/span&gt;" style="rounded=0;whiteSpace=wrap;html=1;" parent="36" vertex="1">
                    <mxGeometry x="400" y="80" width="200" height="120" as="geometry"/>
                </mxCell>
                <mxCell id="24" value="&lt;span style=&quot;color: rgb(240 , 240 , 240) ; font-family: &amp;#34;helvetica&amp;#34; ; font-size: 12px ; font-style: normal ; font-weight: 400 ; letter-spacing: normal ; text-align: center ; text-indent: 0px ; text-transform: none ; word-spacing: 0px ; background-color: rgb(42 , 42 , 42) ; display: inline ; float: none&quot;&gt;Item #4&lt;/span&gt;" style="rounded=0;whiteSpace=wrap;html=1;" parent="36" vertex="1">
                    <mxGeometry x="600" y="80" width="200" height="120" as="geometry"/>
                </mxCell>
                <mxCell id="38" value="" style="edgeStyle=none;html=1;fontSize=9;entryX=0.5;entryY=0;entryDx=0;entryDy=0;" parent="1" source="37" target="20" edge="1">
                    <mxGeometry relative="1" as="geometry"/>
                </mxCell>
                <mxCell id="37" value="&lt;font style=&quot;font-size: 10px&quot;&gt;Buy: Item #1,&amp;nbsp;Account 1, Amount x&lt;/font&gt;" style="whiteSpace=wrap;html=1;fontSize=26;" parent="1" vertex="1">
                    <mxGeometry x="35" y="20" width="170" height="40" as="geometry"/>
                </mxCell>
                <mxCell id="173" value="" style="edgeStyle=none;html=1;fontSize=10;entryX=0.5;entryY=0;entryDx=0;entryDy=0;exitX=0.5;exitY=1;exitDx=0;exitDy=0;" parent="1" source="174" target="118" edge="1">
                    <mxGeometry relative="1" as="geometry">
                        <mxPoint x="120" y="350" as="sourcePoint"/>
                        <mxPoint x="120" y="380" as="targetPoint"/>
                    </mxGeometry>
                </mxCell>
                <mxCell id="174" value="Buy Reward" style="rounded=0;whiteSpace=wrap;html=1;fontSize=10;" parent="1" vertex="1">
                    <mxGeometry x="20" y="340" width="70" height="20" as="geometry"/>
                </mxCell>
                <mxCell id="175" value="" style="edgeStyle=none;html=1;fontSize=10;entryX=0.5;entryY=0;entryDx=0;entryDy=0;exitX=0.5;exitY=1;exitDx=0;exitDy=0;" parent="1" source="176" target="90" edge="1">
                    <mxGeometry relative="1" as="geometry">
                        <mxPoint x="205" y="350" as="sourcePoint"/>
                        <mxPoint x="205" y="470" as="targetPoint"/>
                    </mxGeometry>
                </mxCell>
                <mxCell id="176" value="&lt;font style=&quot;font-size: 9px&quot;&gt;StakeReward: Randint = 1&lt;/font&gt;" style="rounded=0;whiteSpace=wrap;html=1;fontSize=10;" parent="1" vertex="1">
                    <mxGeometry x="105" y="340" width="115" height="20" as="geometry"/>
                </mxCell>
                <mxCell id="177" value="" style="edgeStyle=none;html=1;fontSize=10;entryX=0.5;entryY=0;entryDx=0;entryDy=0;exitX=0.5;exitY=1;exitDx=0;exitDy=0;" parent="1" source="178" edge="1">
                    <mxGeometry relative="1" as="geometry">
                        <mxPoint x="320" y="350" as="sourcePoint"/>
                        <mxPoint x="320" y="470" as="targetPoint"/>
                    </mxGeometry>
                </mxCell>
                <mxCell id="178" value="Buyer Reward" style="rounded=0;whiteSpace=wrap;html=1;fontSize=10;" parent="1" vertex="1">
                    <mxGeometry x="220" y="340" width="80" height="20" as="geometry"/>
                </mxCell>
                <mxCell id="179" value="" style="edgeStyle=none;html=1;fontSize=10;entryX=0.5;entryY=1;entryDx=0;entryDy=0;exitX=0.5;exitY=1;exitDx=0;exitDy=0;" parent="1" source="180" target="119" edge="1">
                    <mxGeometry relative="1" as="geometry">
                        <mxPoint x="405" y="350" as="sourcePoint"/>
                        <mxPoint x="245" y="510" as="targetPoint"/>
                    </mxGeometry>
                </mxCell>
                <mxCell id="180" value="&lt;font style=&quot;font-size: 9px&quot;&gt;StakeReward: Randint = 3&lt;/font&gt;" style="rounded=0;whiteSpace=wrap;html=1;fontSize=10;" parent="1" vertex="1">
                    <mxGeometry x="305" y="340" width="115" height="20" as="geometry"/>
                </mxCell>
                <mxCell id="183" value="" style="edgeStyle=none;html=1;fontSize=10;entryX=0.5;entryY=0;entryDx=0;entryDy=0;exitX=0.5;exitY=1;exitDx=0;exitDy=0;" parent="1" source="184" edge="1">
                    <mxGeometry relative="1" as="geometry">
                        <mxPoint x="520" y="350" as="sourcePoint"/>
                        <mxPoint x="520" y="470" as="targetPoint"/>
                    </mxGeometry>
                </mxCell>
                <mxCell id="184" value="Buyer Reward" style="rounded=0;whiteSpace=wrap;html=1;fontSize=10;" parent="1" vertex="1">
                    <mxGeometry x="420" y="340" width="80" height="20" as="geometry"/>
                </mxCell>
                <mxCell id="185" value="" style="edgeStyle=none;html=1;fontSize=10;entryX=0.75;entryY=1;entryDx=0;entryDy=0;exitX=0.5;exitY=1;exitDx=0;exitDy=0;" parent="1" source="186" target="163" edge="1">
                    <mxGeometry relative="1" as="geometry">
                        <mxPoint x="605" y="350" as="sourcePoint"/>
                        <mxPoint x="520" y="510" as="targetPoint"/>
                    </mxGeometry>
                </mxCell>
                <mxCell id="186" value="&lt;font style=&quot;font-size: 9px&quot;&gt;StakeReward: Randint = 2&lt;/font&gt;" style="rounded=0;whiteSpace=wrap;html=1;fontSize=10;" parent="1" vertex="1">
                    <mxGeometry x="505" y="340" width="115" height="20" as="geometry"/>
                </mxCell>
                <mxCell id="187" value="" style="edgeStyle=none;html=1;fontSize=10;entryX=0.5;entryY=0;entryDx=0;entryDy=0;exitX=0.5;exitY=1;exitDx=0;exitDy=0;" parent="1" source="188" edge="1">
                    <mxGeometry relative="1" as="geometry">
                        <mxPoint x="720" y="350" as="sourcePoint"/>
                        <mxPoint x="720" y="470" as="targetPoint"/>
                    </mxGeometry>
                </mxCell>
                <mxCell id="188" value="Buyer Reward" style="rounded=0;whiteSpace=wrap;html=1;fontSize=10;" parent="1" vertex="1">
                    <mxGeometry x="620" y="340" width="80" height="20" as="geometry"/>
                </mxCell>
                <mxCell id="189" value="" style="edgeStyle=none;html=1;fontSize=10;exitX=0.5;exitY=1;exitDx=0;exitDy=0;entryX=0.5;entryY=0;entryDx=0;entryDy=0;" parent="1" source="190" target="117" edge="1">
                    <mxGeometry relative="1" as="geometry">
                        <mxPoint x="805" y="350" as="sourcePoint"/>
                        <mxPoint x="770" y="510" as="targetPoint"/>
                    </mxGeometry>
                </mxCell>
                <mxCell id="190" value="&lt;font style=&quot;font-size: 9px&quot;&gt;StakeReward: Randint = 2&lt;/font&gt;" style="rounded=0;whiteSpace=wrap;html=1;fontSize=10;" parent="1" vertex="1">
                    <mxGeometry x="705" y="340" width="115" height="20" as="geometry"/>
                </mxCell>
                <mxCell id="242" value="" style="edgeStyle=none;html=1;fontSize=9;exitX=0.5;exitY=1;exitDx=0;exitDy=0;entryX=0.5;entryY=0;entryDx=0;entryDy=0;" parent="1" source="20" target="176" edge="1">
                    <mxGeometry relative="1" as="geometry"/>
                </mxCell>
                <mxCell id="243" value="" style="edgeStyle=none;html=1;fontSize=9;exitX=0.5;exitY=1;exitDx=0;exitDy=0;" parent="1" source="20" edge="1">
                    <mxGeometry relative="1" as="geometry">
                        <mxPoint x="60" y="340" as="targetPoint"/>
                    </mxGeometry>
                </mxCell>
                <mxCell id="244" value="" style="edgeStyle=none;html=1;fontSize=9;exitX=0.5;exitY=1;exitDx=0;exitDy=0;entryX=0.5;entryY=0;entryDx=0;entryDy=0;" parent="1" edge="1">
                    <mxGeometry relative="1" as="geometry">
                        <mxPoint x="320" y="310" as="sourcePoint"/>
                        <mxPoint x="362.5" y="340" as="targetPoint"/>
                    </mxGeometry>
                </mxCell>
                <mxCell id="245" value="" style="edgeStyle=none;html=1;fontSize=9;exitX=0.5;exitY=1;exitDx=0;exitDy=0;" parent="1" edge="1">
                    <mxGeometry relative="1" as="geometry">
                        <mxPoint x="320" y="310" as="sourcePoint"/>
                        <mxPoint x="260" y="340" as="targetPoint"/>
                    </mxGeometry>
                </mxCell>
                <mxCell id="246" value="" style="edgeStyle=none;html=1;fontSize=9;exitX=0.5;exitY=1;exitDx=0;exitDy=0;entryX=0.5;entryY=0;entryDx=0;entryDy=0;" parent="1" edge="1">
                    <mxGeometry relative="1" as="geometry">
                        <mxPoint x="520" y="310" as="sourcePoint"/>
                        <mxPoint x="562.5" y="340" as="targetPoint"/>
                    </mxGeometry>
                </mxCell>
                <mxCell id="247" value="" style="edgeStyle=none;html=1;fontSize=9;exitX=0.5;exitY=1;exitDx=0;exitDy=0;" parent="1" edge="1">
                    <mxGeometry relative="1" as="geometry">
                        <mxPoint x="520" y="310" as="sourcePoint"/>
                        <mxPoint x="460" y="340" as="targetPoint"/>
                    </mxGeometry>
                </mxCell>
                <mxCell id="248" value="" style="edgeStyle=none;html=1;fontSize=9;exitX=0.5;exitY=1;exitDx=0;exitDy=0;entryX=0.5;entryY=0;entryDx=0;entryDy=0;" parent="1" edge="1">
                    <mxGeometry relative="1" as="geometry">
                        <mxPoint x="720" y="310" as="sourcePoint"/>
                        <mxPoint x="762.5" y="340" as="targetPoint"/>
                    </mxGeometry>
                </mxCell>
                <mxCell id="249" value="" style="edgeStyle=none;html=1;fontSize=9;exitX=0.5;exitY=1;exitDx=0;exitDy=0;" parent="1" edge="1">
                    <mxGeometry relative="1" as="geometry">
                        <mxPoint x="720" y="310" as="sourcePoint"/>
                        <mxPoint x="660" y="340" as="targetPoint"/>
                    </mxGeometry>
                </mxCell>
            </root>
        </mxGraphModel>
    </diagram>
</mxfile>